<?xml version="1.0"?>
<svg xmlns="http://www.w3.org/2000/svg" viewBox="0 0 50 50">
    <path d="M 26.976562 5 C 24.782563 5 22.796703 6.027375 21.595703 7.734375 C 20.757703 7.411375 19.411 7 18 7 C 15.41 7 13.342063 8.0229375 11.539062 10.210938 C 10.834062 10.114937 9.6326563 10.038312 8.2226562 10.320312 C 4.9966563 10.966313 3 14.544281 3 17.488281 L 3 31 C 3 34.757 4.869 37 8 37 C 8.998 37 10.056453 36.895844 10.939453 36.464844 L 11 18.996094 L 13 19.003906 L 12.939453 36.609375 C 14.005453 37.477375 15.422 38 17 38 C 18.609 38 19.976 37.59 21 36.875 L 21 17 L 23 17 L 23 35.724609 C 23.367 36.265609 24.349 37 27 37 C 29.131 37 31 35.131 31 33 L 31 17 C 31 14.653 32.160969 13.424969 32.292969 13.292969 L 33.707031 14.707031 C 33.689031 14.727031 33 15.481 33 17 L 33 33 C 33 35.131 34.869 37 37 37 C 38.952 37 41.072625 36.501359 42.015625 32.818359 L 43.998047 15.953125 C 43.983047 10.335125 41.293594 9.0126562 39.683594 8.2226562 L 39.447266 8.1054688 C 37.591266 7.1764687 34.5825 7.6432969 33.3125 7.9042969 C 31.7375 6.3822969 29.901562 5 26.976562 5 z M 45.404297 21.101562 L 43.970703 33.242188 C 43.001703 37.117187 40.722 39 37 39 C 34.942 39 33.085 37.899578 32 36.267578 C 30.915 37.899578 29.058 39 27 39 C 26.352 39 25.780719 38.955813 25.261719 38.882812 C 24.979719 39.376812 24.676922 39.9565 24.419922 40.5625 C 23.642922 42.3915 23.57575 43.811203 24.21875 44.783203 C 24.75275 45.590203 25.688 46 27 46 C 28.504 46 30.202 45.622656 32 45.222656 C 35.121 44.528656 38.657906 43.740687 41.628906 44.929688 L 41.808594 45 L 42 45 C 44.009 45 45.563094 44.229938 46.621094 42.710938 C 49.822094 38.111937 47.255297 27.261562 45.404297 21.101562 z"/>
</svg>
