<?xml version="1.0" encoding="utf-8"?>
<!-- Svg Vector Icons : http://www.onlinewebfonts.com/icon -->
<!DOCTYPE svg PUBLIC "-//W3C//DTD SVG 1.1//EN" "http://www.w3.org/Graphics/SVG/1.1/DTD/svg11.dtd">
<svg version="1.1" xmlns="http://www.w3.org/2000/svg" xmlns:xlink="http://www.w3.org/1999/xlink" x="0px" y="0px" viewBox="0 0 256 256" enable-background="new 0 0 256 256" xml:space="preserve">
<metadata> Svg Vector Icons : http://www.onlinewebfonts.com/icon </metadata>
<g><g><g><path fill="#000000" d="M58.6,6.4C41.4,9.9,28.2,21.1,23.8,36.1c-2.7,9-0.9,22.1,3.7,29.5l2,3.2l-2.4,5c-4.7,10.1-4.8,18.3-0.1,27.5c4.7,9.3,16.1,18.8,29.3,24.2c3.8,1.6,5,2.4,4.7,3.2c-0.4,1.1-1.9,6.5-2.7,10l-0.4,1.8l-11,0.1c-9.3,0-11.8,0.3-16.3,1.6c-10.2,3.1-15.1,10.5-19.2,28.7c-1.7,8-1.9,9.1-0.9,10.8c1.9,3.4,7.6,3.9,9.3,0.7c0.4-0.9,1.5-5.1,2.4-9.5c2.7-13.3,6-18.8,12.3-20.4c3-0.8,10.9-1.1,18.2-0.9l4.8,0.1l0.8,4.7c0.4,2.5,1.5,6.7,2.3,9.4c0.8,2.6,1.4,4.8,1.2,5c-0.1,0.1-3,1.8-6.3,3.7c-15.3,8.4-21.3,14.6-24,24.9c-1.3,5-2.1,18.6-1.4,22.7c1,5.3,5,7.2,9.2,4.1c1.3-0.9,1.5-2.2,1.9-12.4c0.3-8.3,0.8-12,1.6-14.1c2.4-5.6,9.3-11.3,19.6-16.6c2.1-1,4-1.9,4.3-1.9s1.8,1.9,3.3,4.2c1.4,2.3,4.4,6,6.5,8.4l3.8,4.2l-4.2,5c-4.9,5.8-8.1,12-9.3,17.8c-0.6,3.3-0.6,5,0.4,9.3c1.4,6.2,7.1,18.2,9.5,19.7c3.3,2.2,8.2-0.5,8.2-4.5c0-0.9-1.5-4.7-3.3-8.3c-2.7-5.3-3.4-7.5-3.7-11.3c-0.3-4.1-0.1-5.1,1.7-8.5c2.1-3.9,8-11.5,9-11.6c0.3,0,2.7,1.3,5.3,2.9c10.3,6.2,21.6,9.3,33.6,9.3c12.4,0,22.7-2.8,33.6-9.1l5.7-3.3l3.7,4c8.6,9.5,9.5,15.6,3.7,27.4c-1.9,3.8-3.4,7.7-3.4,8.5c0,3.7,3.9,6.1,7.5,4.7c2.4-0.9,9.3-14.8,10.3-21.2c1.6-8.8-1.8-17.6-10.7-27.7l-2.8-3.2l1.9-1.7c1.8-1.6,9.5-11.7,10.9-14.1c0.6-1.1,1-1.1,4.2,0.4c11.1,5.4,19.2,12.3,21,18.1c0.6,1.7,1.1,7.9,1.4,13.7c0.5,11.5,0.8,12.3,4.8,13.2c1.7,0.3,2.7,0,4.3-1.4l2.1-1.8l-0.1-10c-0.1-14.3-2.2-21.2-8.3-28c-3.3-3.5-12.2-9.6-19.1-13.1c-4-1.9-4.5-2.4-4.2-3.8c1.1-3.5,3.2-12.5,3.7-15.1l0.4-2.7l4.8-0.1c2.7-0.1,7.2,0,10.2,0.1c13.6,0.4,17,4.2,20.6,21.9c1.9,9.3,2.9,11.1,6.7,11.1c1.1,0,2.7-0.6,3.7-1.4c2.2-1.8,2.2-5.1-0.4-15.6c-3.8-15.6-8.9-22.6-18.7-25.5c-4.2-1.3-7-1.6-16.1-1.6l-11-0.1l-0.4-1.8c-0.2-1-1-3.9-1.7-6.5c-0.8-2.5-1.3-4.7-1.2-4.7c0.1-0.1,2.7-1.1,5.7-2.4c12.6-5.5,24.1-14.8,28.4-23.5c4.7-9.2,4.6-18.1-0.1-28l-2.4-4.9l2.1-3.2c3.7-5.8,5.1-12,4.7-20.7c-0.4-8.6-1.7-13-6-19.3C220.4,15,208.8,8,194.6,6c-10.5-1.5-22.6,1.2-24.2,5.5c-1.1,2.8-0.4,4.2,5.2,9.8c9.2,9.4,16.8,19.7,15.4,21.1c-1,1-8.2-2-14.1-5.9c-7.2-4.8-8-5-10.6-3.7c-2.6,1.4-2.9,2.2-3.4,8.6c-0.9,10.6,3.2,22.1,10.4,29.1c10,9.8,26.3,13.3,39.2,8.6c2.4-0.9,4.8-1.6,5.3-1.6c1.6-0.2,3.6,5.7,3.6,10.6c0.1,10.2-7.3,18.4-24,26.3l-7.5,3.5l-4.7-5c-2.6-2.7-7-6.5-9.7-8.4l-4.9-3.4l1.3-1.9c5.4-7.7,2.9-19-5.2-24.1c-3.2-1.9-4.2-2.2-9-2.2c-4.9,0-5.9,0.2-9,2.2c-4.7,2.9-7.6,7.7-8,13.1l-0.3,4.1h-12h-12.1l-0.4-4.2c-0.5-5.5-3.3-10.2-8-13.1c-3.2-1.9-4.2-2.2-9-2.2c-4.9,0-5.9,0.2-9,2.2c-8.2,5.1-10.6,16.4-5.2,24.1l1.4,1.9l-4.7,3c-2.5,1.6-6.9,5.4-9.7,8.3l-5.1,5.4l-7.5-3.6c-16.6-7.9-24-16.1-24-26.3c0-4.9,2-10.8,3.6-10.6c0.5,0.1,2.9,0.8,5.3,1.6c5.9,2.2,14.4,2.7,20.7,1.1c18-4.2,28.5-17.4,28.7-35.9c0.1-8.1-0.4-10.1-3.2-11.5c-2.7-1.4-3.4-1.2-10.7,3.6c-5.9,3.9-13.1,6.9-14.1,5.9c-1.3-1.4,6.3-11.9,15.1-20.8c5.4-5.5,6.5-7.5,5.5-10.2C84,6.7,70,4.1,58.6,6.4z M65.3,21.6c-8.4,9.9-12.5,18.2-11.4,23.6c0.6,3.2,4.6,7.2,8,7.9c4.2,0.8,9.8-0.1,15-2.5c2.7-1.2,5-2.1,5.2-1.9c0.1,0.2-0.2,2.1-0.9,4.2C78.2,63.3,68.3,70,56,70.1c-7.2,0-12-1.9-16.1-6.4c-9.8-10.6-8-29,3.7-38.5c6.1-5,14.8-8.3,21.6-8.3l4.2-0.1L65.3,21.6z M199.2,18.2c4.7,1.4,11.9,5.4,14.8,8.1c2.8,2.7,6.4,8.6,7.6,12.6c3.5,11.9-1.8,25.1-11.9,29.5c-2.9,1.3-5.1,1.6-9.5,1.6c-12.3-0.1-22.2-6.8-25.2-17.3c-0.6-2.1-1-3.9-0.8-4.2c0.1-0.1,2.4,0.7,5,1.9c5,2.4,10.9,3.4,15.1,2.6c3.4-0.6,7.4-4.7,8-7.9c1.1-5.4-2.9-13.6-11.4-23.6l-4.1-4.8h3.9C192.9,16.8,196.7,17.5,199.2,18.2z M103.1,85.4c3.3,2.9,1.9,9-2.4,10.2C92.8,97.6,89,87,96.6,84C98.2,83.4,101.7,84.1,103.1,85.4z M161.9,85.4c3.1,2.8,1.9,8.8-2,10.1c-6.9,2.4-11.8-6.2-6.1-10.6C156,83.2,159.7,83.4,161.9,85.4z M139.2,103.7c32.3,3.9,51.2,23.2,47.8,48.6c-3.2,24.3-20.9,45.1-44.6,52.6c-7.7,2.4-20.9,2.4-28.7,0c-19.6-6.2-35.4-21.6-42-41.2c-9.9-29.1,5.5-52.4,38.8-59C120.7,102.8,129.3,102.5,139.2,103.7z"/></g></g></g>
</svg>