<?xml version="1.0"?>
<svg xmlns="http://www.w3.org/2000/svg" width="50" height="50" viewBox="0 0 50 50">
    <path d="M 25 2.78125 L 24.4375 3.15625 C 23.9685 3.47225 23.35 3.84625 22.625 4.28125 C 18.784 6.58425 11.62975 10.89 9.09375 17.75 C 6.56075 24.606 9.16025 32.07575 9.90625 33.96875 L 6.5625 40.625 L 21 44.75 L 21 32.59375 L 16.40625 29.96875 C 14.91525 29.11575 14 27.5295 14 25.8125 C 14 23.1675 16.13625 21 18.78125 21 C 20.49825 21 22.11775 21.91525 22.96875 23.40625 L 25 27 L 27.03125 23.40625 C 27.88225 21.91525 29.4695 21 31.1875 21 C 33.8325 21 36 23.13625 36 25.78125 C 36 27.49825 35.08475 29.11675 33.59375 29.96875 L 29 32.59375 L 29 44.75 L 43.4375 40.625 L 40.09375 33.96875 C 40.83975 32.07575 43.43925 24.606 40.90625 17.75 C 38.35725 10.853 31.1725 6.556 27.3125 4.25 C 26.6145 3.833 26.0175 3.46025 25.5625 3.15625 L 25 2.78125 z M 15 17 C 15.552 17 16 17.448 16 18 C 16 18.552 15.552 19 15 19 C 14.448 19 14 18.552 14 18 C 14 17.448 14.448 17 15 17 z M 19 17 C 19.552 17 20 17.448 20 18 C 20 18.552 19.552 19 19 19 C 18.448 19 18 18.552 18 18 C 18 17.448 18.448 17 19 17 z M 23 17 C 23.552 17 24 17.448 24 18 C 24 18.552 23.552 19 23 19 C 22.448 19 22 18.552 22 18 C 22 17.448 22.448 17 23 17 z M 27 17 C 27.553 17 28 17.448 28 18 C 28 18.552 27.553 19 27 19 C 26.447 19 26 18.552 26 18 C 26 17.448 26.447 17 27 17 z M 31 17 C 31.553 17 32 17.448 32 18 C 32 18.552 31.553 19 31 19 C 30.447 19 30 18.552 30 18 C 30 17.448 30.447 17 31 17 z M 35 17 C 35.553 17 36 17.448 36 18 C 36 18.552 35.553 19 35 19 C 34.447 19 34 18.552 34 18 C 34 17.448 34.447 17 35 17 z M 18.78125 23 C 17.23925 23 16 24.2705 16 25.8125 C 16 26.8135 16.53625 27.72175 17.40625 28.21875 L 23 31.40625 L 23 39.0625 C 24.381 38.9885 25.633 38.9895 27 39.0625 L 27 31.40625 L 32.59375 28.21875 C 33.46275 27.72175 34 26.78225 34 25.78125 C 34 24.23925 32.7295 23 31.1875 23 C 30.1865 23 29.27725 23.53725 28.78125 24.40625 L 25 31 L 21.21875 24.40625 C 20.72175 23.53625 19.78225 23 18.78125 23 z"/>
</svg>
