<?xml version="1.0"?>
<svg xmlns="http://www.w3.org/2000/svg" viewBox="0 0 50 50">
    <path style="text-indent:0;text-align:start;line-height:normal;text-transform:none;block-progression:tb;-inkscape-font-specification:Sans" d="M 25 7 C 11.215 7 0 14.402 0 23.5 C 0 29.641602 5.0470627 35.197094 13.21875 38.0625 C 15.296034 42.174078 19.813095 45 25 45 C 30.186905 45 34.703966 42.174078 36.78125 38.0625 C 44.952937 35.197094 50 29.641602 50 23.5 C 50 14.402 38.785 7 25 7 z M 25 12 C 35.299 12 44 16.351 44 21.5 C 44 24.260543 41.439124 26.9285 37.125 28.75 C 35.255172 24.209098 30.517554 21 25 21 C 19.482446 21 14.744828 24.209098 12.875 28.75 C 8.5608762 26.9285 6 24.260543 6 21.5 C 6 16.351 14.701 12 25 12 z M 25 23 C 31.132014 23 36 27.514439 36 33 C 36 38.485561 31.132014 43 25 43 C 18.867986 43 14 38.485561 14 33 C 14 27.514439 18.867986 23 25 23 z M 19.8125 26.09375 A 1.0001 1.0001 0 0 0 19.0625 27.59375 L 20.34375 29.96875 L 17.875 34.21875 L 16.25 34.21875 A 1.0001 1.0001 0 0 0 16.03125 34.21875 A 1.0059637 1.0059637 0 1 0 16.25 36.21875 L 17.90625 36.21875 L 20.3125 39.96875 L 20.0625 40.3125 A 1.001098 1.001098 0 0 0 21.71875 41.4375 L 22 41 L 28 41 L 28.28125 41.4375 A 1.001098 1.001098 0 0 0 29.9375 40.3125 L 29.6875 39.96875 L 32.09375 36.21875 L 33.75 36.21875 A 1.0001 1.0001 0 1 0 33.75 34.21875 L 32.125 34.21875 L 29.65625 29.96875 L 30.9375 27.59375 A 1.0001 1.0001 0 0 0 30.0625 26.09375 A 1.0001 1.0001 0 0 0 29.96875 26.09375 A 1.0001 1.0001 0 0 0 29.1875 26.65625 L 27.90625 29 L 22.09375 29 L 20.8125 26.65625 A 1.0001 1.0001 0 0 0 19.90625 26.09375 A 1.0001 1.0001 0 0 0 19.8125 26.09375 z M 22.09375 31 L 27.90625 31 L 30.375 35.1875 L 27.96875 39 L 22.03125 39 L 19.625 35.1875 L 22.09375 31 z"/>
</svg>
